<svg xmlns="http://www.w3.org/2000/svg" viewBox="0 0 865.44 827.16"><defs><style>.cls-1{fill:#f3f4fe;}.cls-2{fill:#d2d6fa;}.cls-3{fill:#f1f2fd;}.cls-4{fill:#7f93c9;}.cls-5{fill:#cbd2f7;}.cls-6{fill:#7986bf;}.cls-7{fill:#4e3636;}.cls-8{fill:#594444;}.cls-9{fill:#ffbf49;}.cls-10{fill:none;stroke:#339fa1;stroke-linecap:round;stroke-miterlimit:10;stroke-width:5px;}.cls-11{fill:#ffb2bf;}.cls-12{fill:#ff6d8d;}.cls-13{fill:#422a2a;}.cls-14{fill:#f9a0b4;}.cls-15{fill:#a5254a;}.cls-16{fill:#b83153;}.cls-17{fill:#cc3e66;}.cls-18{fill:#aa2249;}.cls-19{fill:#962f4a;}.cls-20{fill:#e1617f;}.cls-21{fill:#fff;}.cls-22{fill:#fdc3cd;}.cls-23{fill:#339fa1;}.cls-24{fill:#277c83;}.cls-25{fill:#e2eaf7;}.cls-26{fill:#f5f9ff;}.cls-27{fill:#f0a284;}.cls-28,.cls-37{fill:#d85e66;}.cls-29{fill:#28468e;}.cls-30{fill:#4286f1;}.cls-31{fill:#1b366d;}.cls-32{fill:#76aeff;}.cls-33{fill:#007494;}.cls-34{fill:#fcffff;}.cls-35{fill:#3980e5;}.cls-36{fill:#2f3d6c;}.cls-37{opacity:0.35;isolation:isolate;}.cls-38{fill:#374453;}.cls-39{fill:#495c91;}.cls-40{fill:#c53f24;}.cls-41{fill:#f05e47;}.cls-42{fill:#ffb7a1;}</style></defs><title>坐车</title><g id="图层_2" data-name="图层 2"><g id="图层_1-2" data-name="图层 1"><path class="cls-1" d="M865.43,538.32v10.41a129.42,129.42,0,0,1-.77,14.33,131.28,131.28,0,0,1-10,38.18c-1.6,3.71-3.37,7.32-5.28,10.84a132.69,132.69,0,0,1-61.78,57.33q-1.93.89-3.93,1.71c-3.59,1.49-7.28,2.83-11,4a132.91,132.91,0,0,1-39.55,6H679.34A27.33,27.33,0,0,0,652,708.44V810.36H254.91a59.64,59.64,0,0,1-59.64-59.64h0V708.45a27.29,27.29,0,0,0-13.85-23.75,25.12,25.12,0,0,0-3.51-1.68c-.77-.3-1.56-.57-2.36-.81a27.18,27.18,0,0,0-3-.68,26.14,26.14,0,0,0-4.6-.4H137.59c-1.42,0-2.83,0-4.26-.06A137.17,137.17,0,0,1,77.4,667.29q-6-2.92-11.67-6.4A138.41,138.41,0,0,1,49,648.83q-4.55-3.81-8.72-8a137.57,137.57,0,0,1,97.27-234.9h46.06a35.62,35.62,0,0,0,24.53-9.74l.76-.73a35.76,35.76,0,0,0-25.29-61H154.77a83.41,83.41,0,0,1-58.45-23.85l-.66-.66a83.53,83.53,0,0,1,0-118.24c.21-.22.43-.44.66-.65l.21-.21a83.51,83.51,0,0,1,58.24-23.63,69.15,69.15,0,0,0,46.51-17.93c1.06-1,2.09-2,3.11-3,.64-.66,1.28-1.34,1.89-2A69.05,69.05,0,0,0,216,130.32c1-1.94,2-3.95,2.82-6a68,68,0,0,0,5.07-21.86c.1-1.5.14-3,.14-4.54V27.32A27.32,27.32,0,0,1,251.38,0H738a83.5,83.5,0,0,1,71.22,39.82c.69,1.09,1.35,2.2,2,3.33a81.9,81.9,0,0,1,4.72,10.09c.81,2.07,1.54,4.17,2.18,6.32a80.56,80.56,0,0,1,2.75,12.76,78.94,78.94,0,0,1,.78,11.29c0,2.9-.16,5.76-.43,8.58a87.26,87.26,0,0,1-1.7,10.27A83.7,83.7,0,0,1,738,167.21H670a48.51,48.51,0,0,0-43.55,27c-.51,1-1,2-1.42,3.11a48.6,48.6,0,0,0,45,67.05q1.32,0,2.64.06a62.56,62.56,0,0,1,21.87,4.89c1.76.74,3.46,1.56,5.12,2.45A62.94,62.94,0,0,1,733,327.39v43a43.92,43.92,0,0,0,31.25,42.1,188.78,188.78,0,0,1,23.27,8.62,164.92,164.92,0,0,1,16.4,8.46,140.39,140.39,0,0,1,20.41,14.57,117.38,117.38,0,0,1,22.26,25.43,113,113,0,0,1,13.13,28.36,121.11,121.11,0,0,1,3.11,12.45,143.15,143.15,0,0,1,2.6,27.94Z"/><path class="cls-2" d="M803.92,429.57a140.39,140.39,0,0,1,20.41,14.57,27.88,27.88,0,0,1-11,2.23H332.44a28.12,28.12,0,0,1-28.12-28.11V158.42a28.14,28.14,0,0,1,28.12-28.12H807.33A83.84,83.84,0,0,1,738,167.19H670a48.51,48.51,0,0,0-43.55,27c-.51,1-1,2.05-1.42,3.11a48.6,48.6,0,0,0,45,67.05q1.32,0,2.64.06a62.56,62.56,0,0,1,21.87,4.89c1.76.74,3.46,1.56,5.12,2.45A62.94,62.94,0,0,1,733,327.37v43a43.92,43.92,0,0,0,31.25,42.1,188.78,188.78,0,0,1,23.27,8.62A164.47,164.47,0,0,1,803.92,429.57Z"/><path class="cls-3" d="M803.92,429.57a25.24,25.24,0,0,1-11.77,2.87H353.62A25.63,25.63,0,0,1,328,406.81h0V169.87a25.64,25.64,0,0,1,25.62-25.64H792.15a25.37,25.37,0,0,1,3.15.2A83.26,83.26,0,0,1,738,167.19H670a48.51,48.51,0,0,0-43.55,27c-.51,1-1,2.05-1.42,3.11a48.6,48.6,0,0,0,45,67.05q1.32,0,2.64.06a62.56,62.56,0,0,1,21.87,4.89c1.76.74,3.46,1.56,5.12,2.45A62.94,62.94,0,0,1,733,327.37v43a43.92,43.92,0,0,0,31.25,42.1,188.78,188.78,0,0,1,23.27,8.62A164.47,164.47,0,0,1,803.92,429.57Z"/><path class="cls-4" d="M865.43,538.32v10.41a129.42,129.42,0,0,1-.77,14.33,131.28,131.28,0,0,1-10,38.18c-1.6,3.71-3.37,7.32-5.28,10.84a131.9,131.9,0,0,1-11.53,17.6H323V539.89a29.51,29.51,0,0,1,29.51-29.51H862.82a143.94,143.94,0,0,1,2.61,27.94Z"/><path class="cls-2" d="M865.43,547.27v1.46a129.42,129.42,0,0,1-.77,14.33H323V547.27Z"/><path class="cls-2" d="M854.61,601.24c-1.6,3.71-3.37,7.32-5.28,10.84a132.69,132.69,0,0,1-61.78,57.33q-1.93.89-3.93,1.71h-463a34.94,34.94,0,1,1,0-69.88Z"/><path class="cls-4" d="M625,197.32a49.48,49.48,0,0,0-3,10.26H304.32V197.32Z"/><path class="cls-4" d="M694.53,130.3h5.13v36.89h-5.13Z"/><path class="cls-4" d="M694.53,269.33c1.76.74,3.46,1.56,5.12,2.45V446.37h-5.12Z"/><path class="cls-4" d="M439.82,130.3V446.36h-5.13V130.3Z"/><path class="cls-5" d="M783.62,671.12c-3.59,1.49-7.28,2.83-11,4a132.91,132.91,0,0,1-39.55,6H679.34A27.33,27.33,0,0,0,652,708.44V809.57H375.27V671.12Z"/><path class="cls-6" d="M815.87,53.22H224.06V39.8H809.18c.69,1.09,1.35,2.2,2,3.33A82.39,82.39,0,0,1,815.87,53.22Z"/><rect class="cls-6" x="587.96" y="27.3" width="16.07" height="49.17" rx="8.03"/><path class="cls-6" d="M591.82,64.82h8.34V137h-8.34Z"/><path class="cls-6" d="M596,214.49a41,41,0,1,1,41-41A41,41,0,0,1,596,214.49Zm0-73a32.06,32.06,0,1,0,32.06,32.08A32.06,32.06,0,0,0,596,141.49Z"/><rect class="cls-2" x="57.18" y="809.55" width="66.58" height="17.61" rx="8.35"/><rect class="cls-2" x="130.21" y="809.55" width="728.11" height="17.61" rx="8.35"/><circle class="cls-7" cx="344.3" cy="246.62" r="24.47"/><path class="cls-8" d="M368.78,246.62a21.15,21.15,0,0,1-.25,3.37,24.46,24.46,0,0,0-48.45,0,23.76,23.76,0,0,1-.24-3.37,24.47,24.47,0,1,1,48.94,0Z"/><circle class="cls-9" cx="344.31" cy="260.61" r="24.47"/><path class="cls-10" d="M271.53,464.47s12.8-93,58.65-127.13"/><path class="cls-11" d="M268.83,222.78h0a6.54,6.54,0,0,1-6.88-6.2l-1.06-20.34a6.55,6.55,0,0,1,6.2-6.88h0a6.54,6.54,0,0,1,6.87,6.2L275,215.9A6.56,6.56,0,0,1,268.83,222.78Z"/><circle class="cls-12" cx="262.92" cy="217.95" r="12.89"/><path class="cls-11" d="M324.55,366.57a18.19,18.19,0,0,1-23.67-7,13.53,13.53,0,0,1-.71-1.29l-7.08-14.36-51.75-105a18.21,18.21,0,1,1,32.34-16.75c.11.21.22.43.32.65l39.58,80.32L323.86,324l9,18.19a18.19,18.19,0,0,1-8.29,24.36Z"/><ellipse class="cls-11" cx="255.44" cy="220.01" rx="20.59" ry="24.43" transform="translate(-61.52 105.16) rotate(-20.82)"/><path class="cls-13" d="M380.06,278.28v49.23c0,1.82-1.95,3.29-4.35,3.29h-7.38a2.1,2.1,0,0,1-2-1.18l-1.48-4.05a.78.78,0,0,0-1.07-.29.76.76,0,0,0-.3.29l-1.54,4.09a2.09,2.09,0,0,1-2,1.16h-28a2.06,2.06,0,0,1-2.05-1.25l-2-6.9a.83.83,0,0,0-1.12-.35.84.84,0,0,0-.35.35l-2.27,6.9a2.09,2.09,0,0,1-2,1.21H315c-2.41,0-4.35-1.47-4.35-3.29V278.28Z"/><path class="cls-11" d="M352.88,592.81h37v208h-37Z"/><path class="cls-11" d="M337.12,800.82h-37v-208h37Z"/><path class="cls-14" d="M352.88,592.81h37V617.3h-37Z"/><path class="cls-14" d="M337.12,617.3h-37V592.81h37Z"/><path class="cls-15" d="M352,806.79h37.34a18.67,18.67,0,0,0-37.34,0Z"/><path class="cls-16" d="M391.72,809.57H351.6a6.34,6.34,0,0,1,0-12.67c.21,0,.42,0,.62,0l39.87,3.87a4.39,4.39,0,0,1-.37,8.77Z"/><path class="cls-15" d="M300.35,806.79h37.37a18.67,18.67,0,0,0-37.34,0Z"/><path class="cls-16" d="M338.61,809.57H298.55a6.34,6.34,0,0,1-6.34-6.34h0a6.33,6.33,0,0,1,6.33-6.33c.21,0,.42,0,.62,0L339,800.8a4.39,4.39,0,0,1-.4,8.77Z"/><path class="cls-16" d="M245.53,602.1h199a12.73,12.73,0,0,0,12.68-12.8,12,12,0,0,0-.31-2.73c-13.59-58.2-35-110.84-77.85-140.15H311.4c-42,36.28-66.34,84.23-78.32,140.3a12.74,12.74,0,0,0,9.83,15.1,12.15,12.15,0,0,0,2.62.28Z"/><path class="cls-17" d="M444.48,602.1H431.29A12.73,12.73,0,0,0,444,589.4a12.86,12.86,0,0,0-.32-2.83c-13.57-58.2-35-110.84-77.85-140.15h13.18c42.87,29.31,64.28,82,77.86,140.15a12.72,12.72,0,0,1-12.43,15.53Z"/><path class="cls-11" d="M332.36,301.47v33.47a11.95,11.95,0,0,0,23.89,0V301.47a11.95,11.95,0,0,0-23.89-.69Z"/><path class="cls-16" d="M310.53,394.28v51.29a34.76,34.76,0,1,0,69.52,0V394.28Z"/><rect class="cls-11" x="368.11" y="332.15" width="38.27" height="100.4" rx="18.98" transform="translate(-146.63 276.87) rotate(-33.46)"/><path class="cls-18" d="M310.53,382.21v51.34l69.52-15.06V382.21Z"/><path class="cls-16" d="M393,384.57v1.76a23.51,23.51,0,0,1-23.51,23.51H319.07a23.51,23.51,0,0,1-23.5-23.51v-1.76A48.48,48.48,0,0,1,302.85,359c10.1,7.32,24.93,11.93,41.46,11.93s31.34-4.61,41.44-11.94A48.33,48.33,0,0,1,393,384.57Z"/><path class="cls-9" d="M310.53,438.73h69.53V447H310.53Z"/><path class="cls-9" d="M369.85,442l10.67,18.49a2.76,2.76,0,0,1-1,3.76h0a2.75,2.75,0,0,1-3.76-1l-10.67-18.49a2.76,2.76,0,0,1,1-3.76h0A2.77,2.77,0,0,1,369.85,442Z"/><path class="cls-9" d="M367.64,441.61l-5.29,17.24a2.74,2.74,0,0,1-3.43,1.83h0a2.76,2.76,0,0,1-1.83-3.44l5.3-17.25a2.75,2.75,0,0,1,3.43-1.82h0A2.75,2.75,0,0,1,367.64,441.61Z"/><path class="cls-17" d="M393,384.57v1.76a23.51,23.51,0,0,1-23.51,23.51H353.83a52.37,52.37,0,0,0,22.6-43.13c0-.79,0-1.58-.06-2.36a54,54,0,0,0,9.38-5.4c-.23-.38-.47-.75-.72-1.12-.75-1.15-1.56-2.26-2.41-3.34.85,1.08,1.66,2.19,2.42,3.34a48.43,48.43,0,0,1,8,26.74Z"/><path class="cls-14" d="M332.36,301.47V327.3a29.07,29.07,0,0,0,23.89.62V301.47a11.95,11.95,0,0,0-23.89-.69v.69Z"/><circle class="cls-11" cx="314.43" cy="288" r="12.2"/><ellipse class="cls-11" cx="345.01" cy="284.96" rx="34.48" ry="41.66"/><path class="cls-14" d="M307.23,287.57a5.3,5.3,0,0,1,3.24-4.88,1.53,1.53,0,0,1,2,.89,1.48,1.48,0,0,1,.09.55V291a1.52,1.52,0,0,1-1.53,1.53,1.55,1.55,0,0,1-.66-.15,5.3,5.3,0,0,1-3.1-4.81Z"/><circle class="cls-7" cx="331.73" cy="290.57" r="2.62"/><circle class="cls-7" cx="357.87" cy="290.57" r="2.62"/><path class="cls-19" d="M351.07,301.23a5.58,5.58,0,0,1-1.66,4,4.89,4.89,0,0,1-.41.37,5.75,5.75,0,0,1-3.66,1.32h-.23a5.86,5.86,0,0,1-3.4-1.07,5.69,5.69,0,0,1-2.38-4.1v-.47a1.11,1.11,0,0,1,1.11-1.11l9.53-.07a1.11,1.11,0,0,1,1.1,1.12Z"/><path class="cls-20" d="M345.22,306.07a3.7,3.7,0,0,1-.08.88,5.74,5.74,0,0,1-5.78-5.17,4.58,4.58,0,0,1,5.7,3.08,4.13,4.13,0,0,1,.19,1.21Z"/><path class="cls-21" d="M349.72,300.14c0,1.11-1.77,2-3.92,2s-3.89-.87-3.94-2Z"/><path class="cls-21" d="M349,305.62a5.73,5.73,0,0,1-3.66,1.32h-.23a5.86,5.86,0,0,1-3.4-1.07,4,4,0,0,1,3.69-2A4.15,4.15,0,0,1,349,305.62Z"/><path class="cls-11" d="M382.43,464.74h0a15.94,15.94,0,0,1,21,8.32l5.53,12.8a15.94,15.94,0,0,1-8.32,21h0a15.94,15.94,0,0,1-21-8.32l-5.53-12.79A16,16,0,0,1,382.43,464.74Z"/><path class="cls-11" d="M384.74,492.58h0a15.86,15.86,0,0,1-11.09-19.51l18.49-67.18a15.87,15.87,0,0,1,19.51-11.09h0a15.86,15.86,0,0,1,11.09,19.51l-18.49,67.18A15.87,15.87,0,0,1,384.74,492.58Z"/><path class="cls-11" d="M382.43,464.74h0a15.94,15.94,0,0,1,21,8.32l5.53,12.8a15.94,15.94,0,0,1-8.32,21h0a15.94,15.94,0,0,1-21-8.32l-5.53-12.79A16,16,0,0,1,382.43,464.74Z"/><path class="cls-22" d="M421.88,419.18l-16.26,59,3.3,7.63a15.95,15.95,0,0,1-17.26,22.06,16,16,0,0,0,12-22.06l-.37-.87-2.92-6.74,2-7.21,12.3-44.66s7.39-18.49,1.32-27.23l-2.46-3.73-32.71-49.48a19.07,19.07,0,0,0-13.38-8.4,19.15,19.15,0,0,1,18.65,8.4l35.17,53.21c3.63,5,4.35,10.76.63,20.08Z"/><path d="M391.32,487.47v0Z"/><path d="M391.32,487.47v0Z"/><path d="M391.32,487.47v0Z"/><path class="cls-11" d="M385.72,358.9a54,54,0,0,1-9.38,5.4,78,78,0,0,1-32.06,6.54c-16.53,0-31.36-4.61-41.46-11.93.47-.77,1-1.52,1.48-2.25a47,47,0,0,1,5.51-6.59c.77-.78,1.58-1.53,2.41-2.26a47,47,0,0,1,5.56-4.18c.35-.24.71-.46,1.07-.67a47.28,47.28,0,0,1,7.94-3.93,48.72,48.72,0,0,1,35.9.38,47,47,0,0,1,7,3.56c.52.31,1,.65,1.54,1,.28.18.55.36.82.56a47,47,0,0,1,4.25,3.31c.84.73,1.64,1.48,2.42,2.25a46.8,46.8,0,0,1,6.27,7.7,10,10,0,0,1,.73,1.11Z"/><path class="cls-22" d="M377.4,649.48h0a5.32,5.32,0,0,1,5.32,5.32v97.14a5.32,5.32,0,0,1-5.32,5.32h0a5.32,5.32,0,0,1-5.32-5.32V654.8A5.32,5.32,0,0,1,377.4,649.48Z"/><ellipse class="cls-9" cx="360.4" cy="438.14" rx="4.75" ry="8.2" transform="translate(-206.31 464.56) rotate(-53.23)"/><ellipse class="cls-9" cx="366.6" cy="438.14" rx="8.2" ry="4.75" transform="translate(-203.81 469.53) rotate(-53.23)"/><ellipse class="cls-22" cx="388.89" cy="484.99" rx="4.14" ry="8.44"/><circle class="cls-11" cx="376.38" cy="288" r="12.2"/><path class="cls-14" d="M382.13,287.57a5.26,5.26,0,0,1-3.23,4.88,1.52,1.52,0,0,1-1.95-.89,1.49,1.49,0,0,1-.1-.55v-6.87a1.54,1.54,0,0,1,1.53-1.53,1.49,1.49,0,0,1,.66.15A5.26,5.26,0,0,1,382.13,287.57Z"/><path class="cls-7" d="M377.93,278.28H363.4a1.53,1.53,0,0,1-1.46-1.13l-1.28-5.07a1,1,0,0,0-1.9-.08l-2,5.72a.83.83,0,0,1-.79.56h-1.75a.83.83,0,0,1-.81-.64l-1.4-5.55a1,1,0,0,0-1.91-.08l-1.8,5.16a1.65,1.65,0,0,1-1.56,1.11H312.08a2,2,0,0,1-1.95-2v-.14C312.13,257.44,327,243,345,243s32.86,14.49,34.87,33.15a2,2,0,0,1-1.81,2.17Z"/><path class="cls-8" d="M379.89,276.1a2,2,0,0,1-.72,1.74C375.52,261.31,361.61,249,345,249s-30.51,12.29-34.16,28.82a2,2,0,0,1-.72-1.74C312.13,257.44,327,243,345,243S377.88,257.44,379.89,276.1Z"/><path class="cls-10" d="M330.18,333.64s20.73,115.09-37.32,149.07"/><ellipse class="cls-23" cx="273.46" cy="485.49" rx="20.04" ry="28.31" transform="translate(-283.71 479.57) rotate(-60)"/><path class="cls-24" d="M298,499.64a15.44,15.44,0,0,1-7.81,6.59c.31-8.58-6-18.42-16.45-24.49-9.27-5.35-19.44-6.36-26.72-3.39a14.87,14.87,0,0,1,2-7c5.52-9.58,21-11,34.52-3.2s20,21.9,14.46,31.49Z"/><ellipse class="cls-9" cx="273.47" cy="483.79" rx="6.47" ry="9.13" transform="translate(-282.24 478.73) rotate(-60)"/><path class="cls-24" d="M300.45,477.47h0a5,5,0,0,1-1.13,7h0a5,5,0,0,1-7-1.13h0a5,5,0,0,1,1.13-7h0A5,5,0,0,1,300.45,477.47Z"/><path class="cls-24" d="M275.62,461.57h0a5,5,0,0,1-1.13,7h0a5,5,0,0,1-7-1.13h0a5,5,0,0,1,1.13-7h0A5,5,0,0,1,275.62,461.57Z"/><rect class="cls-6" x="244.98" y="27.3" width="16.07" height="49.17" rx="8.03"/><path class="cls-6" d="M248.84,64.82h8.34V137h-8.34Z"/><path class="cls-6" d="M253,214.49A41,41,0,1,1,294,173.43v.14A41,41,0,0,1,253,214.49Zm0-73a32.06,32.06,0,1,0,32,32.08,32.06,32.06,0,0,0-32-32.08Z"/><path class="cls-11" d="M329.41,213h0a6.74,6.74,0,0,1-7.77-5.53l-2.53-14.94a6.75,6.75,0,0,1,5.52-7.78h0a6.75,6.75,0,0,1,7.78,5.53l2.53,14.94A6.75,6.75,0,0,1,329.41,213Z"/><path class="cls-11" d="M319.77,217.93h0A6.76,6.76,0,0,1,312,212.4l-2.52-14.94a6.74,6.74,0,0,1,5.52-7.78h0a6.75,6.75,0,0,1,7.78,5.53l2.52,14.94A6.74,6.74,0,0,1,319.77,217.93Z"/><path class="cls-11" d="M310.19,221.68h0a6.76,6.76,0,0,1-7.78-5.53l-2.52-14.94a6.74,6.74,0,0,1,5.52-7.78h0a6.75,6.75,0,0,1,7.78,5.53l2.52,14.94A6.75,6.75,0,0,1,310.19,221.68Z"/><rect class="cls-25" x="444.47" y="412.92" width="158.94" height="45.96" rx="22.98" transform="translate(-155.37 380.54) rotate(-35.1)"/><path class="cls-26" d="M590.79,393.22A23,23,0,0,0,561,390.29l-92.43,65a23,23,0,0,0-7.38,29,24.26,24.26,0,0,1-2.19-2.65,23,23,0,0,1,5.58-32l92.44-65a23,23,0,0,1,32,5.59,22.23,22.23,0,0,1,1.81,3Z"/><rect class="cls-25" x="656.32" y="356.49" width="45.96" height="158.94" rx="22.98" transform="translate(-67.98 741.05) rotate(-54.9)"/><path class="cls-26" d="M747.62,474.57a22.93,22.93,0,0,0-9.72-17.46l-92.44-65a23,23,0,0,0-32,5.59,22.47,22.47,0,0,0-3.34,7v-1.36a23,23,0,0,1,36.19-18.77l92.41,65A23,23,0,0,1,747.62,474.57Z"/><path class="cls-27" d="M634.28,759.78h34v40.68h-34Z"/><path class="cls-28" d="M634.28,759.78h34v21.06h-34Z"/><path class="cls-29" d="M632.72,782.57H645a11.1,11.1,0,0,1,11.11,11.11v6.81H632.72V782.57Z"/><path class="cls-29" d="M636.87,794l18-1.18a19.32,19.32,0,0,1,35.4,10.94l-38.64-.47L632.36,803l.06-4.33a4.8,4.8,0,0,1,4.45-4.72Z"/><path class="cls-30" d="M669.17,784.25a19.3,19.3,0,0,1,17.08,19.43h4a19.32,19.32,0,0,0-19.09-19.56C670.49,784.17,669.83,784.19,669.17,784.25Z"/><path class="cls-31" d="M628.72,805.81a3,3,0,0,0,2.56,3,2.54,2.54,0,0,0,.39,0l57.6.7h.48a4.54,4.54,0,0,0,.11-9,4.33,4.33,0,0,0-.72,0l-2.22.09-6.32.26-2.94.13-6.32.26-2.94.12-6.32.26-2.94.13-6.32.26-2.94.12-6.32.26-2.94.13-6.32.26-2.72.11h-.23a3,3,0,0,0-2.63,2.93Z"/><path class="cls-29" d="M686.9,800.57l-.11,8.94h2.94l.11-9a4.33,4.33,0,0,0-.72,0Z"/><path class="cls-29" d="M677.64,801l-.1,8.44,2.94,0,.1-8.61Z"/><path class="cls-29" d="M668.38,801.33l-.1,7.95,2.94,0,.1-8.1Z"/><path class="cls-29" d="M659.12,801.72l-.09,7.45,2.94,0,.09-7.61Z"/><path class="cls-29" d="M649.86,802.1l-.09,6.95,2.94,0,.09-7.11Z"/><path class="cls-29" d="M640.6,802.49l-.08,6.45,2.94,0,.08-6.62Z"/><path class="cls-29" d="M631.33,802.88l-.07,6h2.94l.08-6.11-2.72.11Z"/><circle class="cls-30" cx="642.61" cy="795.05" r="5.43"/><circle class="cls-30" cx="642.61" cy="795.05" r="5.43"/><path class="cls-31" d="M642.39,790.75a4,4,0,0,1,.85.13,4.28,4.28,0,0,0-.45,8.38,4.22,4.22,0,0,1-.87,0,4.28,4.28,0,0,1,.13-8.56l.34,0Z"/><path class="cls-32" d="M642,798a3.11,3.11,0,0,1-.6-.09,3,3,0,0,0,.32-5.85,3.11,3.11,0,0,1,.61,0,3,3,0,1,1-.33,6Z"/><path class="cls-27" d="M716.53,568.63,710,602l-39.92-7.82,6.53-33.37Z"/><path class="cls-28" d="M697.29,564.86l-6.53,33.38-20.67-4,6.54-33.38Z"/><path class="cls-29" d="M716.84,567.15l-4.5,23h0l-6.68-1.31a11.12,11.12,0,0,1-8.77-13l2.36-12h0l17.59,3.44Z"/><path class="cls-29" d="M709.72,570l-4.61,17.41a19.32,19.32,0,0,0,3.94,36.84l7-38,3.47-19-4.26-.78A4.81,4.81,0,0,0,709.72,570Z"/><path class="cls-30" d="M694,599.81a19.34,19.34,0,0,0,15.76,20.5l-.71,3.92a19.32,19.32,0,0,1-15.53-22.48h0c.14-.66.3-1.31.48-1.94Z"/><path class="cls-31" d="M722.89,564.23a3,3,0,0,1,2.44,3.09,1.27,1.27,0,0,1,0,.39l-10.42,56.66a1.89,1.89,0,0,1-.11.47,4.53,4.53,0,0,1-8.87-1.63c0-.24.06-.48.11-.71l.52-2.16,1.47-6.15.69-2.86,1.47-6.15.69-2.87,1.47-6.15.68-2.86,1.47-6.15.69-2.87,1.47-6.15.69-2.86,1.47-6.15.63-2.64c0-.08,0-.15.07-.23a3,3,0,0,1,3.37-2Z"/><path class="cls-29" d="M706.56,620.34l8.8,1.61-.53,2.89-8.9-1.63c0-.24.06-.48.11-.71Z"/><path class="cls-29" d="M708.72,611.33l8.31,1.52-.54,2.89L708,614.19Z"/><path class="cls-29" d="M710.88,602.31l7.81,1.43-.53,2.9-8-1.46Z"/><path class="cls-29" d="M713,593.3l7.33,1.34-.53,2.89-7.48-1.37Z"/><path class="cls-29" d="M715.19,584.28l6.84,1.25-.53,2.9-7-1.28Z"/><path class="cls-29" d="M717.35,575.27l6.35,1.16-.53,2.9-6.51-1.19Z"/><path class="cls-29" d="M719.52,566.25l5.84,1.07-.53,2.9-6-1.1.63-2.64.06-.23Z"/><circle class="cls-30" cx="709.66" cy="575.82" r="5.43"/><circle class="cls-30" cx="709.66" cy="575.82" r="5.43"/><path class="cls-31" d="M705.48,574.77a4.22,4.22,0,0,0,0,.87,4.28,4.28,0,0,1,8.31,1.16,4,4,0,0,0,.2-.84,4.28,4.28,0,0,0-8.48-1.19Z"/><path class="cls-32" d="M712.72,575.8a3.11,3.11,0,0,0,0-.61,3,3,0,0,1-5.8-.81,3,3,0,0,0,5.6,2.16,2.76,2.76,0,0,0,.18-.74Z"/><path class="cls-33" d="M543.32,563.06H657.65a19.09,19.09,0,0,1,19.09,19.09h0a19.09,19.09,0,0,1-19.09,19.09H543.32a19.09,19.09,0,0,1-19.09-19.09h0A19.09,19.09,0,0,1,543.32,563.06Z"/><path class="cls-34" d="M661.36,566.36H539.6l-7.25-123.42a68.24,68.24,0,0,1,64.12-72.13c1.33-.08,2.67-.12,4-.12a68.24,68.24,0,0,1,68.25,68.23q0,2-.12,4Z"/><rect class="cls-33" x="512.67" y="526.6" width="52.21" height="77.16" rx="26.1" transform="translate(-231.8 438.99) rotate(-37.07)"/><rect class="cls-27" x="639.42" y="453.08" width="21.69" height="41.91" rx="10.84" transform="translate(59.24 1020.15) rotate(-78.83)"/><path class="cls-35" d="M676.74,588.49V773.1a3.53,3.53,0,0,1-3.54,3.54H628.07a3.54,3.54,0,0,1-3.54-3.54V588.49a25.43,25.43,0,0,1,25.38-25.43h1.4a25.43,25.43,0,0,1,25.43,25.43Z"/><rect class="cls-27" x="532.04" y="463.2" width="41.91" height="21.69" rx="10.84" transform="translate(-81.36 116.11) rotate(-11.17)"/><path class="cls-36" d="M563.94,328.59h-1.5V306.46a16.89,16.89,0,0,1,16.88-16.87h1.5v22.12a16.88,16.88,0,0,1-16.88,16.88Z"/><path class="cls-36" d="M625.39,294.14a14,14,0,0,1,14,14h0v25h0a14,14,0,0,1-14-14h0v-25Z"/><path class="cls-27" d="M617,330.57V375.2a15.21,15.21,0,1,1-30.41.78V330.57a15.21,15.21,0,1,1,30.41-.78Q617,330.18,617,330.57Z"/><path class="cls-28" d="M617,330.57v40.35a32.34,32.34,0,0,1-30.41.75v-41.1a15.21,15.21,0,1,1,30.41-.78Q617,330.18,617,330.57Z"/><path class="cls-27" d="M633.65,315v2.14l-.24,19.47a32.37,32.37,0,0,1-64.73-.73l.24-21.27a32.37,32.37,0,0,1,64.73.35Z"/><path class="cls-37" d="M633.65,315v2.14l-10.35,4A36.69,36.69,0,0,1,575.92,300l-1.27-3.39a32.36,32.36,0,0,1,59,18.36Z"/><path class="cls-38" d="M617.3,326.57a4.78,4.78,0,0,1-9.55,0,5.57,5.57,0,0,1,.11-1,4.78,4.78,0,0,0,9.34,0A4.78,4.78,0,0,1,617.3,326.57Z"/><path class="cls-38" d="M594.43,326.57a4.78,4.78,0,0,1-9.55,0,5.57,5.57,0,0,1,.11-1,4.77,4.77,0,0,0,9.33,0A4.79,4.79,0,0,1,594.43,326.57Z"/><path class="cls-27" d="M642.27,329.92a12.55,12.55,0,0,1-10.33,10.4,1.74,1.74,0,0,1-2-1.42,1.53,1.53,0,0,1,0-.3V317.28a1.72,1.72,0,0,1,1.7-1.74,1.51,1.51,0,0,1,.3,0,12.52,12.52,0,0,1,10.38,14.36Z"/><path class="cls-19" d="M605.64,337.76a4.36,4.36,0,0,1-1.38,3.06c-.1.1-.21.19-.32.28a4.37,4.37,0,0,1-2.81.91H601a4.31,4.31,0,0,1-2.55-.91,4.41,4.41,0,0,1-1.69-3.23v-.37a.88.88,0,0,1,.27-.59.83.83,0,0,1,.61-.23l7.23.22a.84.84,0,0,1,.82.86Z"/><path class="cls-20" d="M601.06,341.33a3.09,3.09,0,0,1-.09.68,4.38,4.38,0,0,1-4.24-4.15,3.48,3.48,0,0,1,4.24,2.5,3.18,3.18,0,0,1,.11,1Z"/><path class="cls-21" d="M604.65,336.88c-.06.86-1.4,1.51-3,1.46s-2.93-.77-2.93-1.64Z"/><path class="cls-21" d="M603.94,341.1a4.37,4.37,0,0,1-2.81.91H601a4.39,4.39,0,0,1-2.55-.92,3,3,0,0,1,2.85-1.46A3.08,3.08,0,0,1,603.94,341.1Z"/><circle class="cls-27" cx="569.69" cy="327.94" r="12.54"/><path class="cls-28" d="M562.45,327.64a5.46,5.46,0,0,0,3.31,5,1.56,1.56,0,0,0,2-.91,1.35,1.35,0,0,0,.1-.56v-7.08a1.57,1.57,0,0,0-1.59-1.57,1.55,1.55,0,0,0-.66.15A5.44,5.44,0,0,0,562.45,327.64Z"/><path class="cls-28" d="M637.85,327.64a5.42,5.42,0,0,1-3.31,5,1.58,1.58,0,0,1-2.12-1.47v-7.08a1.58,1.58,0,0,1,1.59-1.57,1.49,1.49,0,0,1,.66.15A5.43,5.43,0,0,1,637.85,327.64Z"/><path class="cls-36" d="M574,281.19l20.87-8a31.52,31.52,0,0,1,40.7,18.16h0l4.22,11a4.84,4.84,0,0,1-2.79,6.26l-15.88,6.08a36.67,36.67,0,0,1-47.38-21.14h0l-2.44-6.37a4.65,4.65,0,0,1,2.68-6Z"/><path class="cls-39" d="M639.51,306.46a4.81,4.81,0,0,1-2.52,2.2l-15.85,6.07a36.68,36.68,0,0,1-47.39-21.09l0-.07-2.44-6.37a4.66,4.66,0,0,1,2.67-6l3.52-1.35a4.67,4.67,0,0,0-.23,3.85l2.43,6.37a36.68,36.68,0,0,0,47.38,21.13h0Z"/><path class="cls-39" d="M588.37,287.41l11.38-4.36a17.19,17.19,0,0,1,22.19,9.9l2.3,6a2.64,2.64,0,0,1-1.52,3.41h0l-8.65,3.31a20,20,0,0,1-25.83-11.52l-1.33-3.47a2.54,2.54,0,0,1,1.47-3.28Z"/><path class="cls-26" d="M593.18,470h11.49v69.46H593.18Z"/><path class="cls-26" d="M646.37,519.18l-41.65,20.25V470c12.55-9.58,26.14-15.56,41.7-14.65Z"/><path class="cls-26" d="M551.47,519.18l41.71,20.25V470c-14-8.28-27.46-14.51-39.43-13.54Z"/><path class="cls-40" d="M593.18,475.56h11.49V545H593.18Z"/><path class="cls-41" d="M646.37,524.77,604.67,545V475.56l41.7-20.25Z"/><path class="cls-41" d="M551.47,524.77,593.18,545V475.56l-41.71-20.25Z"/><path class="cls-30" d="M531.34,523.81l158.73,30.31a3.74,3.74,0,0,1,3,4.38l-8.39,43.93a3.74,3.74,0,0,1-4.37,3L521.55,575.1a26.1,26.1,0,1,1,9.79-51.28Z"/><circle class="cls-30" cx="724.65" cy="472.79" r="32.83"/><path class="cls-27" d="M662.63,528.53,650.18,536a13.69,13.69,0,0,1-18.79-4.72h0a13.71,13.71,0,0,1,4.72-18.79L648.56,505a13.7,13.7,0,0,1,18.79,4.72h0A13.69,13.69,0,0,1,662.63,528.53Z"/><rect class="cls-27" x="611.91" y="483.44" width="53.5" height="38.34" rx="19.17" transform="translate(-167.46 399.31) rotate(-30.9)"/><path class="cls-27" d="M632.35,508.21h0a28.61,28.61,0,0,1,16.45-37l65.94-25.34a28.61,28.61,0,0,1,37,16.44h0a28.61,28.61,0,0,1-16.45,37l-65.94,25.34A28.61,28.61,0,0,1,632.35,508.21Z"/><path class="cls-27" d="M662.63,528.53,650.18,536a13.69,13.69,0,0,1-18.79-4.72h0a13.71,13.71,0,0,1,4.72-18.79L648.56,505a13.7,13.7,0,0,1,18.79,4.72h0A13.69,13.69,0,0,1,662.63,528.53Z"/><path class="cls-42" d="M751.78,462.37a28.53,28.53,0,0,0-10.37-13.23,28.63,28.63,0,0,1-10.36,46.55l-62,23.84-3.92,1.5a27.26,27.26,0,0,1-3.46,1.09,13.56,13.56,0,0,1-3.28,2.75l-2.55,1.51L646,532.31a13.5,13.5,0,0,1-6.8,2,13.78,13.78,0,0,1-6.76-1.65A13.69,13.69,0,0,0,650.22,536l12.46-7.46a13.85,13.85,0,0,0,3.3-2.75,29,29,0,0,0,3.43-1.08l66-25.33a28.62,28.62,0,0,0,16.38-37Z"/><circle class="cls-30" cx="478.61" cy="472.79" r="32.83"/><path class="cls-27" d="M558,504l12.48,7.4a13.7,13.7,0,0,1,4.79,18.77h0a13.7,13.7,0,0,1-18.77,4.8L544,527.54a13.7,13.7,0,0,1-4.8-18.77h0A13.71,13.71,0,0,1,558,504Z"/><rect class="cls-27" x="545.4" y="475.83" width="38.34" height="53.5" rx="19.17" transform="translate(-156.6 728.92) rotate(-59.1)"/><rect class="cls-27" x="482.59" y="421.43" width="57.21" height="127.87" rx="28.6" transform="translate(-125.23 788.45) rotate(-68.98)"/><path class="cls-27" d="M558,504l12.48,7.4a13.7,13.7,0,0,1,4.79,18.77h0a13.7,13.7,0,0,1-18.77,4.8L544,527.54a13.7,13.7,0,0,1-4.8-18.77h0A13.71,13.71,0,0,1,558,504Z"/><path class="cls-42" d="M451.49,462.37a28.57,28.57,0,0,1,10.36-13.23,28.65,28.65,0,0,0,10.36,46.55l62,23.84,3.92,1.5a28.31,28.31,0,0,0,3.46,1.09,13.75,13.75,0,0,0,3.28,2.75l2.55,1.51,9.9,5.93a13.5,13.5,0,0,0,6.79,2,13.72,13.72,0,0,0,6.76-1.65A13.68,13.68,0,0,1,553,536l-12.46-7.46a14,14,0,0,1-3.3-2.75,29.64,29.64,0,0,1-3.43-1.08l-66-25.33a28.61,28.61,0,0,1-16.42-37v0Z"/><rect class="cls-42" x="657.51" y="487.34" width="63.92" height="12.37" rx="6.18" transform="translate(-139.17 313.83) rotate(-23.36)"/><rect class="cls-42" x="496.54" y="457.89" width="12.37" height="63.92" rx="6.18" transform="translate(-146.31 757.14) rotate(-66.64)"/></g></g></svg>